<?xml version="1.0" ?><svg id="icon" style="enable-background:new 0 0 512 512;" version="1.1" viewBox="0 0 512 512" xml:space="preserve" xmlns="http://www.w3.org/2000/svg" xmlns:xlink="http://www.w3.org/1999/xlink"><g><path d="M447.0657043,222.2754059c0,0,0,0,0-0.0027008l-40.270813-121.2444077   c-3.6347961-10.9403992-15.4931946-16.8824005-26.4332886-13.2528992   c-5.2852173,1.7565994-9.5794067,5.4791031-12.0887146,10.4822998c-2.5067749,5.0029984-2.9234924,10.6708984-1.1694031,15.9562988   l0.8491211,2.5562057l-87.4790039,12.303299l-4.4326172-13.346199   c-3.4306946-10.3167038-14.6112976-15.9123001-24.9225922-12.4950027   c-10.3141937,3.427597-15.9201965,14.6083984-12.4950867,24.9225006l2.1593933,6.5018921l-105.1091003,14.7835083   c-0.3179016,0.0440063-0.6286926,0.116394-0.9311981,0.2171936c-26.1306,8.679306-47.3616028,27.103302-59.7838974,51.8811035   c-12.4226036,24.7776947-14.4841042,52.8121948-5.8076019,78.9429169   c3.1476974,9.4771729,7.6800995,18.3370972,13.3605957,26.4609985   c-4.0966949,10.0130005-6.3967972,20.9451904-6.3967972,32.4148865c0,47.3822021,38.5503006,85.9330139,85.9353027,85.9330139   c47.3824005,0,85.9328918-38.5508118,85.9328918-85.9330139c0-6.3198853-0.7323914-12.4648132-2.0336914-18.3999023   l47.9712067-26.3070984l2.1586914,6.5007019c2.7449036,8.2598877,10.4617004,13.4985962,18.7217102,13.4985962   c2.0541992,0,4.1442871-0.3234863,6.1984863-1.0064087c4.9821167-1.6528931,9.0307007-5.160675,11.3952026-9.8794861   c2.3648071-4.7160034,2.7554016-10.0581055,1.1021118-15.0429077l-4.4319153-13.3444824l77.4602051-42.4755096l0.8496094,2.5574951   c2.9101868,8.7620087,11.0951843,14.3186035,19.8622742,14.3186035c2.1782227,0,4.3928223-0.3439026,6.5710144-1.0657043   C444.7532043,245.0765076,450.6976929,233.2180939,447.0657043,222.2754059z M162.0500031,414.6940918   c-41.5407028,0-75.3391037-33.7958069-75.3391037-75.336792s33.7984009-75.3366089,75.3391037-75.3366089   c41.540802,0,75.3367004,33.7956238,75.3367004,75.3366089S203.5908051,414.6940918,162.0500031,414.6940918z    M242.905304,310.5394897c-11.8838043-33.2296753-43.592804-57.1149902-80.8553009-57.1149902   c-31.5634003,0-59.1320038,17.1548157-74.073204,42.5809021c-3.6010971-5.9208069-6.5617981-12.2244873-8.7682953-18.8665161   c-7.7864075-23.4400787-5.9317017-48.6032867,5.2233963-70.8508911   c11.0820007-22.1053925,29.9645996-38.5764008,53.2003937-46.4225922l106.5454102-14.9862976l46.3467102,139.5463104   L242.905304,310.5394897z M322.9211121,299.0141907c-1.0942078,2.1859131-2.9620972,3.8103943-5.2619019,4.571106   c-4.7571106,1.5830994-9.9360962-1.0011902-11.5220032-5.7767029l-57.4558105-172.9961853   c-1.5856934-4.767601,1.0066071-9.9388046,5.7792969-11.5221024c4.7624207-1.5960999,9.9389038,1.0090027,11.5220032,5.7790985   l57.4559937,172.9910889C324.2015991,294.3577881,324.0183105,296.8280945,322.9211121,299.0141907z M325.6689148,265.1517944   l-41.8003235-125.8556976l87.4795227-12.3031998l31.7804871,95.6832962L325.6689148,265.1517944z M430.4703979,238.6533051   c-5.4016113,1.7977905-11.2453003-1.1384125-13.0407104-6.5373077l-40.2680969-121.2418976   c-0.8642883-2.5998993-0.657196-5.3937988,0.5845032-7.8668976c1.2391968-2.4729996,3.3554077-4.3124008,5.9526062-5.1739044   c1.0762024-0.3567963,2.1676941-0.5275955,3.2442017-0.5275955c4.3225098,0,8.3608093,2.7420959,9.7962952,7.0649948   l40.2684021,121.2416992C438.800293,231.0113983,435.8669128,236.8603058,430.4703979,238.6533051z"/><path d="M162.0500031,299.7282104c-21.8518066,0-39.6320038,17.7772827-39.6320038,39.6290894   c0,21.8519897,17.7801971,39.6318054,39.6320038,39.6318054s39.6296997-17.7798157,39.6296997-39.6318054   C201.6797028,317.5054932,183.9017944,299.7282104,162.0500031,299.7282104z M162.0500031,368.3931885   c-16.010498,0-29.0359039-13.0252991-29.0359039-29.0358887c0-16.0078125,13.0254059-29.0332031,29.0359039-29.0332031   c16.0081024,0,29.033493,13.0253906,29.033493,29.0332031   C191.0834961,355.3678894,178.0581055,368.3931885,162.0500031,368.3931885z"/></g></svg>